# xmcd CD database file
#
# Track frame offsets:
#	150
#	14874
#	30777
#	49112
#	64724
#	79154
#	94691
#	112598
#	125957
#	143106
#	158463
#	174779
#	193267
#	207442
#	223705
#	241219
#
# Disc length: 3467 seconds
#
# Revision: 0
# Processed by: cddbd v1.5.2PL0 Copyright (c) Steve Scherf et al.
# Submitted via: CDex 1.51
#
DISCID=d50d8910
DTITLE=Earl Thomas Conley - 16 Biggest Hits
DYEAR=2006
DGENRE=Country
TTITLE0=Fire and Smoke
TTITLE1=Love Con't Care (Whose Heart It Breaks)
TTITLE2=What She Is (Is A Woman In Love)
TTITLE3=Your Love's On The Line
TTITLE4=Holding Her And Loving You
TTITLE5=Don't Make It Easy For Me
TTITLE6=Angel In Disguise
TTITLE7=Chance of Lovin' You
TTITLE8=Love Out Loud
TTITLE9=Nobody Falls Like A Fool
TTITLE10=Once In A Blue Moon
TTITLE11=I Can't Win For Losin' You
TTITLE12=Right From The Start
TTITLE13=We Believe In Happy Endings
TTITLE14=What I'd Say
TTITLE15=Somewhere Between Right And Wrong
EXTD=YEAR: 2006
EXTT0=
EXTT1=
EXTT2=
EXTT3=
EXTT4=
EXTT5=
EXTT6=
EXTT7=
EXTT8=
EXTT9=
EXTT10=
EXTT11=
EXTT12=
EXTT13=
EXTT14=
EXTT15=
PLAYORDER=
